/* XPM */
static char *f570a17fe84a48cfc251a602c8ed2af5[] = {
/* columns rows colors chars-per-pixel */
"64 64 225 2 ",
"   c #0B1716",
".  c #16211D",
"X  c #1A231C",
"o  c #151E21",
"O  c #142222",
"+  c #1B2524",
"@  c #1B2429",
"#  c #1E2A2B",
"$  c #192728",
"%  c #112632",
"&  c #222A25",
"*  c #232C2B",
"=  c #262929",
"-  c #26302E",
";  c #2B312C",
":  c #212D33",
">  c #242A31",
",  c #263333",
"<  c #2B3434",
"1  c #2D3936",
"2  c #2E363A",
"3  c #2E3A3B",
"4  c #323936",
"5  c #333C3B",
"6  c #383B37",
"7  c #30372F",
"8  c #35413E",
"9  c #3A423D",
"0  c #41433C",
"q  c #343E41",
"w  c #3E3F41",
"e  c #354242",
"r  c #3B4443",
"t  c #3E4946",
"y  c #3C454A",
"u  c #3D4A4B",
"i  c #364349",
"p  c #3C4851",
"a  c #414543",
"s  c #434B46",
"d  c #434C4C",
"f  c #494E4B",
"g  c #454A48",
"h  c #45514D",
"j  c #4B514C",
"k  c #464D54",
"l  c #455253",
"z  c #4B5453",
"x  c #4E5855",
"c  c #4B555A",
"v  c #4D5959",
"b  c #475659",
"n  c #525A55",
"m  c #545C5B",
"M  c #56595C",
"N  c #50554F",
"B  c #56615E",
"V  c #5B635F",
"C  c #636A5F",
"Z  c #545D62",
"A  c #575D65",
"S  c #556262",
"D  c #5B6463",
"F  c #5D6964",
"G  c #5C6669",
"H  c #5D6A6B",
"J  c #59686E",
"K  c #616666",
"L  c #636C6C",
"P  c #686D6A",
"I  c #616867",
"U  c #66716E",
"Y  c #6B736E",
"T  c #636D72",
"R  c #6B7473",
"E  c #6F7A74",
"W  c #6D797B",
"Q  c #687277",
"!  c #737A74",
"~  c #747D7C",
"^  c #767978",
"/  c #71776D",
"(  c #7B827D",
")  c #76817C",
"_  c #83897F",
"`  c #747C81",
"'  c #778383",
"]  c #7C8483",
"[  c #7E8985",
"{  c #7E8A8B",
"}  c #7B8489",
"|  c #7D8D92",
" . c #828A85",
".. c #838C8C",
"X. c #8A8F8C",
"o. c #848786",
"O. c #86908E",
"+. c #8B928C",
"@. c #888E94",
"#. c #869392",
"$. c #8B9393",
"%. c #8E9994",
"&. c #8D969A",
"*. c #8C9A9B",
"=. c #929693",
"-. c #949A95",
";. c #939C9B",
":. c #9A9E9A",
">. c #979A8F",
",. c #96A09E",
"<. c #9BA29D",
"1. c #A7A99D",
"2. c #B2AC9C",
"3. c #949EA2",
"4. c #9C9FA6",
"5. c #95A1A2",
"6. c #9BA4A4",
"7. c #9FA8A6",
"8. c #9EA6AA",
"9. c #9DAAAB",
"0. c #96A3AA",
"q. c #9EAAB3",
"w. c #A3ABA4",
"e. c #ABADA3",
"r. c #A3ACAB",
"t. c #AAAEAA",
"y. c #A3A6A5",
"u. c #B1AEA5",
"i. c #ABB2A3",
"p. c #ACB3AC",
"a. c #A7B2AB",
"s. c #B2B3A4",
"d. c #B3B5AB",
"f. c #B3BAAD",
"g. c #BBBBAD",
"h. c #BAB6A8",
"j. c #A5AEB3",
"k. c #A7B2B4",
"l. c #ACB4B3",
"z. c #AEB8B4",
"x. c #ADB6BA",
"c. c #ADBABB",
"v. c #A7B6BD",
"b. c #B2B6B2",
"n. c #B4BBB4",
"m. c #BABDB3",
"M. c #B4BCBB",
"N. c #BABEBA",
"B. c #B0B7BF",
"V. c #C0BFBA",
"C. c #BBC2B4",
"Z. c #B6C1BC",
"A. c #BBC3BC",
"S. c #BEC9BE",
"D. c #B6C1B3",
"F. c #C4C2B6",
"G. c #C2C4BB",
"H. c #C3C9BC",
"J. c #C9C9BD",
"K. c #AABAC4",
"L. c #B8BEC1",
"P. c #BBC4C3",
"I. c #BEC9C4",
"U. c #BBC6CA",
"Y. c #BDCACA",
"T. c #B5C3C3",
"R. c #BDCDD5",
"E. c #B4C9D1",
"W. c #C2C6C2",
"Q. c #C4CBC4",
"!. c #CACDC5",
"~. c #C1C6CA",
"^. c #C3CCCB",
"/. c #CACECA",
"(. c #CBD1C5",
"). c #C6D1CC",
"_. c #CCD3CD",
"`. c #CED9CC",
"'. c #D2D3C4",
"]. c #D1D5CD",
"[. c #D2DACD",
"{. c #DCDDCE",
"}. c #C3CCD1",
"|. c #C9CED3",
" X c #C5D2D2",
".X c #CBD4D3",
"XX c #CED9D5",
"oX c #C5D3DA",
"OX c #CCD6DA",
"+X c #CDDADB",
"@X c #C7D9DD",
"#X c #D1D6D3",
"$X c #D3DAD4",
"%X c #D9DCD4",
"&X c #D1D6DB",
"*X c #D3DCDB",
"=X c #DADEDB",
"-X c #D8D7DC",
";X c #D0CEC1",
":X c #D6E1DD",
">X c #DBE2DC",
",X c #DAE2D6",
"<X c #E1E4DC",
"1X c #E1E7DC",
"2X c #E5F0DF",
"3X c #CDDBE1",
"4X c #C9D9E4",
"5X c #D4DDE2",
"6X c #D9DEE5",
"7X c #CEE1E9",
"8X c #D5E2E3",
"9X c #DBE3E3",
"0X c #DEE9E4",
"qX c #D5E2EA",
"wX c #DCE6EA",
"eX c #DEE9EC",
"rX c #D9E9F3",
"tX c #E1E6E3",
"yX c #E3EAE4",
"uX c #E3EBEA",
"iX c #E6EAE8",
"pX c #E7F2EC",
"aX c #E3EEF2",
"sX c #E8F3F6",
"dX c #F2F7F3",
/* pixels */
"5 }..Xy.S , t a.T.u h Y.+XY.l d O.^.:X+X:X).|.^.M r b.$XQ.1XQ.p.m < 9X%X-.0 <X'.F.f.C.2.F.J.J._ L oXqXi -.#XQ.d.m.e.d.b.XXY.+X  ",
"&X6X5X8X^.Y.*.9 8 [ XX X[ 1 ..#.h 7 s <.).Y.P., ~ &X.X!.].W.%X!./.< -X#X=.s <XJ.g.C.2.C.F.J.{.X.S +X7Xr ../.!.'.d.A.G.#X`. XS O ",
"/.A , I M..X+X*XI.:XI.u n |.&X&X+XXX[ - P.8X[ P 8X/.~.m.d.W.(.`.~.2 iX X$.s <X(.f.i.D.p.h.1X!.>.H 0X).8 ' $X$XW.N.yXQ.`.#.X H  X",
"4 o.M.~ * e ) .X@X,.. ,.*X$X~./.).Q.>Xh r.0X' L .X^.b.p.Z.m.W.#XL.> 6X-X-.r #X(.S.Z.D.D.(.[.A.5 W XX8X( 0 ; V p.yXG.#XM 9 z.:XY.",
"t.%X_.#X*Xb.r $.5X~ o.*X/.b.n.t.Q.XX>Xz M.$XR Y tX~.t.n.b.p.!.#X}.r *X&X[ r XX,XXX).).XX:X' , ' XX!./.=X/.:.Y . U._.).  ).I.>XS.",
"<XG.A.%X/..XI 4.-XI ~ #X_.p.G.d.l.`.0Xd M.:XL R _.%X^.a.N.`.]._.F 5 9X&Xl.z . v %.XX:XI.# S k.:X/.'.{.{.!.6X&X, I.).Z.8 _.XXQ.n.",
"m.f.d.m./.-Xm j.-X` ! -X(.e.1.C.n.>X*X9 a.8XR m /.=XW.#X#X$Xn.& n tX_.Z.yX*X).E 8 ,.+XT.e @X8XU.F.h.2.F.!.#X5X,  XY.T.+ yX#Xn.f.",
"s.d.m.e.#X-XM y.6XI o.<X!.!.C.C.XX%X( 9 P.*Xa.B < f t.=X#X! 7 b.1XQ.$X$XA.0X).:Xu Y..X5.u .XOXS.g.V.u.V.!.#X6X* U.+XZ.+ `._.Q.d.",
"s.m.d.g.].tXj y.-X^ w u.<X!.<X'.N.9 M _.#X#X_.=X).( r _.*Xf <..X].F.d.m.m.A.#X%Xf l.9X5.8 8X XM.h.2.b.d.Q.*X X, R. Xc.. 0X`.(.$X",
"!.g.!.{./.P w ~.#XV.>.0 = >.{.F.; t.!.#X_.W._._.Q.%Xr XXpXe n.$XF.h.m.d.d.G.'.=Xj Q..Xw.d &X*XA.J.h.V.'.#X).Y.,  X@XT., h ,._.Q.",
"].%X%Xe.6 ^ ].#X-X-X].].X./ Q.Q.a >X#XN.n.w.A.Q.$X).h :X*X5 r.`.h.F.s.2.g.F.!.%XM t./.a.t .X X`.!.m.(.!.#X.., G .XR.+XD.) 9 * B ",
"& _.#XN u.-X<XG.d.!.!.-X<.I yXp.a /.*Xn.n.n.p.A.).$X9 yX*Xd ).).(.i.s.J.F.!.<Xp.; ^.&Xb.& 5 [ Z.-XtXtX;.5 x z.+X:XY.0X+X).XXZ.Y ",
"2 ^.9Xf Q.!.m.e.b.1.G.%Xd.P 8Xl.a $X#Xt.n.f.1.(.`.Q.s :X9X5 ..*XyX'.,XC.`.,XU = =..X+X X.Xa.8 - z R r u :. X+XQ.v $ 8 ( .X@X+X:X",
"= |.8Xa m.<Xm.g.e.d.!.$Xw.P 6Xl.r /.]./.A.n.XX`.D.U n `.eXR 2 r / C.(.>X%.X L  XwX^.9.c.+XOXeXU.| p |  X+X X .. ) `.7.u , i ' E.",
"@ L.9X; %XQ.f.i.1.F.!.#X@.~ 5XB.= =.A.$X_.%X`.+.; E Z.eX&X.X9X#.V & x 8 8 v.0X5X#.i q i c 3.oX@X4X7X7X@X*.- S S.>XI.I.eXZ.' U % ",
"> &X5Xr Q.$X(.`.(.%X].^ + y.5XOXr.M X N a.p.f 9 S.XX,XY F l.*X*X:X).%.%.+XpXk.l u j.8XU.` 8 - S E.R.7Xb l w.#X{.(.`.`.`.@X@XZ.O ",
"2 4X.X~ < n %.XX:X[ 8 E +X8X8.}.5X6X~.;.x e <.=X-X .9 / +.s ; F z. X+X*XS.V 9 -.,X`.(.,XJ.{.{.N W rX7X, t.'.].F.h.h.h.s.[.^.I.  ",
"L.6X6X9X|.#.s $ 1 h Z.+X^.S r @ v j.8X|..X8X8XP.g f 1.pX(.Q.N.Y y R 5X.XE h [.{.J.C.h.g.{.J.{.^ J 7X+X, p.%XF.s.V.2.F.g.%X`.a.+ ",
"|.R k @.+X0X.X).9.0X.X;., } ~.-X:.o q ..|..XX.& -.tX$XA.<X=X/.=XL.q oX0X[ V >X(.D.J.t.m.2.{.].! Q 3X+X1 t.].g.g.V.2.1.1._.I.Z.* ",
"; ^ X.w - ) k.:X-Xr.v q Q..X.X].}.5Xj.r ~.8XU ..9X_.N.Z.d.b.(._.k.y 0X X) ) .X].p.w.m.m.f.,XiXm W OX+X* b.tX#X~.V.2.!.!.yXXXE - ",
"G.!.#XiXl.R 1 M.-XI P tX<XQ.A.A.&X9X/.q I.9XP $.*XW.p.b.n.N.`.#Xl.M &X6X` I 6X/.A.<.n.n.Q.|.>XQ ~ +X6Xq o.|..X#XL.iX=X-Xr.6 f B.",
"G.<X!.W.Q.*XG c.|.R @.].N.p.d.i.M..X5X2 c.8XP ] /.W.b.b.n.p.W.#XB.a -XOX! K iX|._.#XZ.^.*X$Xo.= -.*X9X~ 2 q T T.aX}.|.A - @.-X/.",
"H.f.e.b.=X=Xz r.6XM @.%XW.m.C.e.M. XtX5 x..XU -.#X*XN.b.P./.[.$XX.f tXtXo.4 P n.9X^. X-X9.3 p Z.=X!.#XiX=Xk.T : }.5X@.w ~.#X<X/.",
"f.2.m.u.#X-XA y.6XN =.<Xn.d.s.C._. X*X, P.0XF B P.=X*X/.$X>Xp.s g N.*X.X=XN.D r l :X0X:.1 9.+X:X/.F.%XA.=XOX Xp 3X3X4.> iX|.!.y.",
"s.C.1.i.#X-XV y.-XK =.iX'.!.'.(.#XL.N z /.-X^.m ; z l._.yXY + <.].<XH.$X,X`.=XA.9 `.XX,.h XX0XD.C.s.D.f.`.R.R.8 }.5X5.1 *X#Xm.m.",
"H.i.'.%X%X:.= u.-X=.= 0 i.1XG.>X_ 2 @.tX*XN.*XtXW.] D XX>X+ _.$X{.!.f.i.f.H.%X$X9 XXXX .u +XXXS.f.2.C.D.I. X X8 wXoX*.- dX$XG.f.",
"%X,X(.A.K 6 m.<X-X-X].1.6 _ %Xt.6 #X#X~.|.n.#XQ.*Xl.L *X:X& Z.`.F.i.f.C.C.(.Q.`.t ^.:X*.h 0X`.a.2.J.i.D.,X,XI.e +X X9.7 $X[.$X'.",
"; >XiX; X.tX!.!.V.;X'.-X+.-.*Xn.a -X#Xn.M.l.b.#X$Xp.d >X:X+ ^.`.H.f.C.f.1.Q.>XXX7 >XXX[ h ,XY.1X(.C.D.,X,XI.,.3 +X+X*.1 L w..XtX",
"< *X~.9 #X%Xm.e.V.u.!.=X-.( &Xb.N tX-XN.l.M.N.P.*Xl.E XXuX+ Z.:XQ.D.f.n.I.^.`.).y eX:XX., a.9X^.`.Q.>X#Xw.K 5 ;.XXXX*XT.D 1 4 U ",
"@ -XiX6 /.%Xg.C.u.V.(._.:.=.-Xj.M L.#XN.r.N.P.&XXXa.n $XuX- 9.`.,XXX`.$X:X:X8.5 c oXOX.XR 3 8 ~ I.0XW.I 5 }  X_. XU.+X*X+X+X9.B ",
"3 oX5X; /.$X1.i.h.d.W.=X..;.OXj.g dX#X/.6XW.-X#XM.d U sX).F t t %.`.:X).B.b , j.6X6X}.uXwX&X8.M 2 p < T ~.9X-X6.a * h ..@X+X@X7X",
"> OX5Xr #X].[.J.G.'.%XW.5 ..rXU.< 7 o.$X].=X^.S 1 %.>XXX0X:X.X5.r # R m , $.8X5X|.T < L L.5X&X&XU.@.}.OX6Xl.a 4 :.^.6.3 * H 0.8X",
"3 OX5XF & P C.>X,Xa.B 8 9.3X@X7X,XD.F * S H 3 *.XX,X1.n j =..X-X+XoX{ $.5X+X~.F -  .n.^ 9 9 U Q.+X X8X6.t s +.%X`.[.`.$X X[ 5 d ",
"^.9X8X.X_.~ , n U 8 [ @X0X9.S U D.2X>X^.&.} U.8X XC 9 ( +.f w ^ &X}.6X8X5XE - ! Q.,X_.#X.X1.! = 9.3XY.3 [ S.>X[.(.C.].$X`.#X;.y ",
"+XU m a..X X:XO.Y 8XR.S.S , #.U X C <.*X8XoX3XO.& ) S.`.%X%Xt.P @ @.6XOXG t P.$X$XQ.W.%X$X`.=Xa #.+X X, S.).(.f.f.p.A.A.).#X$.5 ",
", ! ( 5 f r.I.eX+X X) 8 [ 8X).0X`./ e u OX5XD b S.`.,X`.(.#X-X.X4.i wXwXM %.:X`.W.f.Q.n.m.#X9Xm 5.@XU., I.`.Q.f.f.C.f.i.`.9X*.h ",
"W.<X#XtX .s d c.pXS B S.%X_.#XQ.`.,X).1 x.aXl 9.XX`.D.D.f.I..X%X$.L 0X6Xl [ =XM.p.p.n.w./.#X!.V 5.+XI.- I.`.Q.n.A.p.n.S.XX`...t ",
"{.'.V.-X*X&Xl c.R.x *.:X#Xb.e.m.H.`.+X8 Y.7Xe k.Y.I.D.D.f.D.Q.*X3.L &X&XD +.*X:Xn.G.n.p.N..XtXf #.8X).* ). X_.S.f.A.Q.).yX9X..t ",
":.J.d.V.:X+Xr v.0Xl a.).n.m.h.m.n.XX X* I.8Xu 5.0XI.a.a.D.Z.I.,XX.m 8X0Xm +.^.`.P.N.M._._.=X Xg *.:XY.- $.Q.:X,X.X`.&X%Xw.9 1 5.",
"V.u.u.t.XX8Xe k.@Xu a.XX!.e.g.u.Z.+X+X* ).8Xe a.`.`.I.D.Z.I.,X>X~ L XX:Xz I M.:X#X#X.X#X6X=.5 x Q.XX:X%.d 1 V l.*X.XZ.D ; ' .X$X",
"h.V.t.V.#X5Xy x.OXl 7.,X].m.J.F.#X9XB.< P.:X9 D P.*X`.&X`.$XD.x 9 l.:X#X~./ < f y.$X*Xb.5 h w.`..X*X X.X&Xn.n x :X*X~ d ).XXXX^.",
"].g.!././.x.: I.wXn f -.%X<XJ.{.^.Z 2 O.:X$X$X .+ g ~.P.0XF + +.$X_.#X/.^.uX.Xo.e 9XOXU D ^.yX&X`.Z.Q./..X*X9.q ).sX' t :X.Xl.S.",
"#X-X-X.XI < y..X~.#X-.f 6 s.%Xb.> } ~.=X#XW._._.yXP T 6X8X  XX).>XQ.l.n./.#X.X#X* &X&XR U &X^.l.p.w.n.N.`. Xj.q +X*XQ v 0XXXP.a.",
"g 6X-Xo @.9X#X$X!.-X=X].C :.%Xy.I 5X5XZ.p.D./._.-X4.c &X8X  XXXXm.p.f.A.m.W.|.^.5 &X.XS F 9X Xl.n.Q.N.l..X5Xk.< eX+XH m  XQ.~.l.",
"% 6X6Xq #X/.V.p.V.d.!.#XP ;.uX&.S OXXXD.i.D.f.W.|.4.A 6X@X$ :X).A.n.f.b.n._.-X^.o *X*XZ L 5X^.P.b.p.r.~.^.OX8.q R.wX` m +X$X`. X",
"% 7XqX= &X#Xb.d.d.u.!.<X~ [ OX5.Z 8XXX<.s.C.w.%X5X@.G 4XR.O Y.:XA.C.d.b.Q..X/.^.i &X.XR D OX8X_.!.'.m.$X=X X' q 3X3XW q $.T.$X^.",
"% 4X4X> 6X#Xy.J.h.V.].].Y #.3X5.H 6XS.`.(.1.`.(.6X&.k 5XqX$  X X_.(.[._.!.>XP.R < ~.6X} @ L x.XX#X'.%XyX6.3 2 9.oXqXOX~ 3 3 [ P.",
"% sX4X< 6X-X;XV.V.W.=X$XM $.3X*.q M.>X).H.`.$X%X` q ` 5X3Xc O D S.>X`.#XtX$.2 r x.0XY.&Xk.n + D W.#X#XF - R ^.&X+X X+X&XOX$.f h ",
"# +XOX, { :X@X).XX+XY.W 5 ,.XXI.e 8 [ `.XX.X-X^ < Z OX|.#X#X^ 4 y K.OXoX5.8 B T.0XP.8X`.`.Q.! < 3.3X|.5 +.I.`.'.H.H.Q.#X XsXW c ",
"%. X:Xr.8 , { 8X0X5., v l.*X9X^.`.6.B 1 OX*Xk v y.iX#X~.$X!.1XA.Q J rXaXl } sXI.XXD.p.S.XX0XyX1 0.rXR., Q.pXC.D.D.D.A.Q.&X&XA A ",
"`.>XY.XX:Xc.1 Y.R.S #.8X#XP././.XX^.P.d .XaXv r.-XL.V.N.N.A.%X=X3.A 4XwXS ;..XXXz.D.n.z.S.S.(.q 0.oXR.q ~.XXN.f.D.f.D.M.&XqX` p ",
"Y.7.I.D.^.7Xv Y.8Xv c.).P.n.w.N.I.XX*Xd .X*Xg x.9XL.N.n.w.p.%XA.3.J 9X+Xu 9.XXY.a.Z.S.w.I.>X%Xe 0.R.T.q I.*X_.l.C.f.A.W.|.4X` q ",
"p.D.7.c.,XXXv M..Xb N.9XN.b.m.t.P.^.^.s .X^.5 L..X/.b.r.n.b.(.iX..Z OXaXm %.XX`.Z.p.n.I.~.!.=X7 q.qXT.e Y.OX~.|.B.M.L.|.|.&X` c ",
"w.D.<.M.XX).d ^.8Xx y.^./.M.<.M.S.*X+Xl  X6Xd l.-X^.W.M.|._..X.X#.` )._.s  .>X(.`.Q.A.(.=X=Xt.1 ;.+Xl.$ R P.tX-X|.6X#X5XoX` o ` ",
"I.c.D.^.:XQ.h )._.f 1./.#X#X!./.:XXX .3  X=Xt v M.0X&X.X#XQ.`.( . +.:X>X+.9 g p.$X`.:X%Xl.M - ( $XXX8Xk.D , I K.&X|.OXL + S ~.&X",
":X).XX$Xr.t f ^.#X-.4 N A./.%X-X,.z k y.*X.X).O., z b. X8X..* D W.`.].].>X!.( 7 h >X%X+.a / ^.=X_.`.).>XOXx.T w 6X}.&.r n.%X&X/.",
"L 8X Xm 6 r.*X/.-XA.%X .7 t.#Xt.4 :. X5X^. X.XXX+XW D *X:X< k.:X#X(.D.W._.#X>XC.& $X#XX.^ 8X$X^.D.f.D.I.`.&X5.q 6X.X;.B XX,XD.D.",
"o -X0X+ |.#X/.b.n.>X#X(.! ^ $Xw.M .X*XM.r.P.Y..XXXO.z :XwX+  X+XA.e.p.C.i.A.>XM.& -XtXo.] .X^.n.D.p.i.f._.0X9.e wX*XE U ,X`.D.i.",
"o .XwX* 6XQ.N.l.t.:.#X=XK :.yX~ D 9X.Xl.a.r.r.Q.*X:.S OX*X: 5X.Xf.C.i.i.A./._.Q.-  X.XL o.:X&Xz.i.D.D.f.P.*X6.r Y.9XW E `.(.D.i.",
"  wXU.+ wX6X6.l.N.b.~.%XU ' #X+.Q *XT.l.P.M.M.).8X#.D  X+X+ T.:Xz.p.n.n.b.Q.$XT.1 OX XL ` .X*XZ.H.1.p.(.*X$X,.u uX5XF E `.(.S.D.",
": 4XR.> .X|.b.N.r.P.&X_.Y $.*X..L +X8XQ.a.z.Y.`.).%.G OXXX: T.7X0XA.n.n.Q.9X_.9.# *X8XW G  X9X^.`._.(.#X-XL.W 8 OX8X..e %.`.2XI.",
"% 4XoX: &.oX5X X#X$XXX$.5 ;.8X..< } N.8X,X+XXX).) * ' OXoXb 2 } S.`.,X*X9Xr.b < { OX5X9.b 3 G ^.:X.X9XW.A * D j.oX+X}.Q h 8 U `.",
"K.R.4Xq.p q o.:X_.5.5 S 9. X8XOXk.B , Y Y.XXY - B Z.OX+X8XoXK.v < Y Q.r.t < ~  X+X3X+X@X X9.A : P 4.A o W U.oXsXY.K.3XuX+X*.u 1 ",
"R.K.q.4X6X9.k : g < 7.*XXXT.T M.:X*Xc.L X # x Z..X:Xc.b H 7X3X XZ.V . & #.OXOXwX9.u 3 ' 8X:X~.L.K > ` 6X|.-XoXT : : Z x.3XeXR.v."
};
